PathFileType	4	(X/Y/Z)	Walk7.trc
DataRate	CameraRate	NumFrames	NumMarkers	Units	OrigDataRate	OrigDataStartFrame	OrigNumFrames
200.000000	200.000000	6	55	mm	200.000000	366	591
Frame#	Times		RFA1		RASI		RUA1		RACR1		RBHD		C7		LFA1		RTH2		RCAR		RTH3		RBack		RElbow		RTB3		RTB1		LElbowM		RMT1		RMT5		RLFC		LTH2		RTB2		RTH4		LTH3		LACR1		RTB4		LElbow		LPSI		RMMAL		LWRU		CLAV		LTH4		RWRR		RPSI		LBHD		LTB1		T10		LLFC		RToe		LFHD		RWRU		LTB3		RTH1		LTB2		LTB4		LMT1		LTH1		LCAL		LMT5		LWRR		LLMAL		RElbowM		RLMAL		LToe		RCAL		LUA1		LCAR
			X1	Y1	Z1	X2	Y2	Z2	X3	Y3	Z3	X4	Y4	Z4	X5	Y5	Z5	X6	Y6	Z6	X7	Y7	Z7	X8	Y8	Z8	X9	Y9	Z9	X10	Y10	Z10	X11	Y11	Z11	X12	Y12	Z12	X13	Y13	Z13	X14	Y14	Z14	X15	Y15	Z15	X16	Y16	Z16	X17	Y17	Z17	X18	Y18	Z18	X19	Y19	Z19	X20	Y20	Z20	X21	Y21	Z21	X22	Y22	Z22	X23	Y23	Z23	X24	Y24	Z24	X25	Y25	Z25	X26	Y26	Z26	X27	Y27	Z27	X28	Y28	Z28	X29	Y29	Z29	X30	Y30	Z30	X31	Y31	Z31	X32	Y32	Z32	X33	Y33	Z33	X34	Y34	Z34	X35	Y35	Z35	X36	Y36	Z36	X37	Y37	Z37	X38	Y38	Z38	X39	Y39	Z39	X40	Y40	Z40	X41	Y41	Z41	X42	Y42	Z42	X43	Y43	Z43	X44	Y44	Z44	X45	Y45	Z45	X46	Y46	Z46	X47	Y47	Z47	X48	Y48	Z48	X49	Y49	Z49	X50	Y50	Z50	X51	Y51	Z51	X52	Y52	Z52	X53	Y53	Z53	X54	Y54	Z54	X55	Y55	Z55

366	1.83	61.742	974.09	552.31	-13.474	946.27	399.69	-32.607	1213.4	506.49	-20.349	1397.9	412.09	-45.954	1588.4	336.95	-94.641	1446.7	274.2	-150.76	995	-45.391	-29.966	647.76	393.7	183.55	839.12	531.4	-107.7	556.52	410.61	-161.32	1350	376.35	-44.852	1084	548.9	-170.49	176.07	293.49	-116.91	358.41	303.43	-230.14	1133.2	82.712	-102.71	36.142	250.72	-131.4	32.608	340.23	-126.72	452.52	390.92	97.801	706.77	83.456	-148.06	265.17	373.25	-94.887	647.49	429.16	78.491	592.69	72.238	-78.863	1436.8	96.07	-140.78	268.57	300.23	-222.52	1133.8	2.98	-190.38	965.27	189.76	-226.05	97.938	245.56	-169.54	877.19	-36.295	34.507	1360.8	245.87	34.331	670.04	56.536	171.2	898.9	492.58	-193.8	970.62	294.44	-43.972	1591.5	198.22	162.68	398.91	144.45	-198.13	1138	252.67	110.27	485.81	90.544	-46.655	26.854	272.14	139.88	1584.2	224.35	117.67	859.3	533.81	138.67	215.53	162.01	-83.788	742.01	440.18	110.31	305.97	92.483	149.06	307.11	153.72	228.67	60.655	200.67	-12.497	756.44	53.866	26.642	48.93	202.72	195.38	50.241	125.92	-91.806	891.43	-16.644	63.65	92.483	148.76	-68.799	1046.3	459.61	-248.53	84.048	334.11	263.83	73.351	174.72	-305.91	39.768	293.58	-165.97	1254.4	9.7519	-100.78	837.19	-62.746
367	1.835	71.168	975.03	552.49	-7.7416	945.36	399.65	-25.382	1212.8	506.69	-13.742	1397	412.05	-39.734	1587.5	336.54	-87.971	1445.8	274.21	-146.49	993.52	-45.123	-25.398	646.48	393.72	195.09	841.84	531.01	-104.09	555.97	410.54	-154.74	1349.2	376.34	-37.182	1083.6	549.49	-169.75	176.01	293.34	-114.88	357.89	303.33	-223.95	1132.4	83.491	-102.64	36.121	250.69	-131.26	32.627	340.19	-123.64	452.18	390.91	104.2	705.78	83.851	-146.45	264.55	373.09	-90.462	646.89	429.21	84.759	591.64	72.818	-72.595	1435.5	95.892	-139.18	268.26	300.15	-216.88	1132.9	3.815	-183.72	964.53	189.42	-225.77	98.107	245.47	-166.26	875.83	-35.736	41.019	1359.9	245.76	40.738	669.17	56.506	181.53	901.75	492.73	-187.76	969.68	294.02	-37.738	1590.3	197.75	170.74	399.14	144.79	-191.43	1137	252.66	115.73	484.29	91.18	-46.61	26.415	272.05	146.37	1583.5	223.89	128.58	861.04	533.45	154.32	215.11	161.66	-78.829	741.35	440.1	121.94	304.55	92.455	160.83	307.12	153.74	250.36	62.511	200.49	-6.4737	755.09	54.02	48.564	44.885	202.77	217.07	51.008	125.64	-88.2	889.41	-16.741	83.885	89.271	148.36	-60.345	1045.4	460.23	-248.07	84.348	334.08	285.3	76.1	174.27	-305.82	40.202	293.7	-159.8	1253.2	10.071	-98.094	835.24	-62.952
368	1.84	80.63	975.96	552.65	-2.116	944.25	400	-18.314	1212.3	506.9	-7.0441	1396.4	411.85	-33.235	1586.4	336.14	-81.425	1444.8	273.69	-142.35	991.8	-44.803	-21.217	645.59	393.72	206.08	844.72	530.55	-100.26	555.25	410.52	-148.23	1348.3	376.12	-28.868	1083.1	549.82	-169.02	176.01	293.21	-112.7	357.26	303.22	-217.17	1131.3	84.107	-102.6	36.096	250.65	-131.15	32.605	340.17	-120.35	451.78	390.62	110.45	704.62	84.228	-145.17	263.73	372.61	-85.659	646.25	429.09	90.899	590.45	73.112	-65.955	1434.3	95.923	-137.75	267.8	300.41	-211.02	1131.7	4.2574	-177.21	963.6	188.95	-225.54	98.379	245.34	-163.21	874.43	-35.461	47.531	1358.7	245.42	47.053	668.01	56.513	191.92	904.52	492.49	-181.77	968.91	293.47	-31.645	1589	197.17	178.91	399.64	144.78	-184.98	1136.1	252.14	121.03	482.57	91.981	-46.565	26.166	271.83	152.65	1582.7	223.26	139.64	862.74	533.16	169.69	214.66	161.46	-73.408	740.58	440.12	133.47	303.13	92.591	172.45	307.11	153.66	271.68	64.828	199.98	0.15359	754.22	53.656	70.46	41.252	202.61	238.91	51.896	125.33	-84.631	887.16	-16.886	104.19	86.582	147.88	-52.685	1044.5	460.91	-247.68	84.668	334.02	306.41	79.082	173.91	-305.72	40.706	293.82	-153.55	1252.1	10.393	-95.401	833.42	-63.044
369	1.845	89.791	976.85	552.77	3.6428	943.28	400.22	-11.029	1211.9	507.03	-0.40583	1395.6	411.65	-26.887	1585.4	335.51	-74.782	1443.7	273.5	-137.56	990.3	-44.578	-16.621	644.47	393.86	217.11	847.43	530.14	-96.291	554.66	410.51	-141.64	1347.4	375.96	-20.892	1082.5	550.19	-168.04	175.9	292.9	-110.49	356.67	303.08	-210.97	1130.1	84.889	-102.52	36.084	250.64	-131.07	32.585	340.15	-117.39	451.33	390.44	116.56	703.07	84.52	-143.79	263.31	372.3	-81.297	645.53	429.07	96.609	589.02	73.589	-59.398	1433.2	95.572	-136.07	267.43	300.71	-204.86	1130.7	4.8377	-170.5	962.61	188.62	-225.24	98.741	245.25	-159.72	872.9	-34.913	54.312	1357.6	245.23	53.391	666.76	56.506	201.86	907.07	492.34	-175.33	968	292.95	-25.372	1587.6	196.75	186.51	400.08	145.09	-178.74	1135.5	251.27	126.47	480.8	92.829	-46.407	26.037	271.62	158.81	1582	222.72	150.46	864.37	532.89	184.78	214.78	160.98	-68.51	739.75	440.14	144.97	302.12	92.759	183.91	307.24	153.71	292.82	67.544	199.73	7.5625	753.72	52.542	91.84	38.233	201.86	259.93	53.166	125.09	-80.731	885.03	-17.067	123.92	84.244	147.56	-45.185	1043.7	461.63	-247.23	84.945	333.95	327.37	82.133	173.75	-305.67	41.293	293.81	-147.25	1250.8	10.461	-92.531	831.22	-63.194
370	1.85	99.224	977.55	552.84	9.6597	942.23	400.37	-4.133	1211	506.91	6.241	1394.8	411.35	-20.504	1584.3	334.91	-68.426	1442.7	273.21	-133.27	988.72	-44.276	-12.03	643.52	393.71	228.19	850.02	529.82	-92.371	554.14	410.47	-134.77	1346.5	375.98	-12.799	1082	550.7	-166.85	175.77	292.68	-108.41	356.07	303.14	-204.57	1129	85.388	-102.48	36.066	250.59	-130.95	32.522	340.23	-114.45	450.77	390.29	122.68	701.41	84.817	-141.86	263.1	372.26	-76.734	644.72	428.96	102.16	587.58	74.046	-53.091	1432.2	95.478	-134.84	267.12	300.13	-198.75	1129.8	5.6089	-163.98	961.23	188.37	-224.81	99.118	245.2	-156.04	871.43	-34.57	60.985	1356.6	245.13	59.506	665.32	56.463	212.12	909.62	492	-168.88	966.82	292.5	-18.855	1586.4	196.13	194.11	400.32	145.19	-172.03	1134.4	250.91	131.85	478.99	93.617	-46.322	25.899	271.35	165.3	1581.3	222.26	161.26	865.85	532.49	199.35	215.03	160.66	-63.449	739.14	440.01	156.02	301.02	92.669	194.82	307.26	153.74	313.3	70.28	199.8	14.068	752.61	52.24	113.14	35.739	201.58	280.9	54.742	125.02	-77.227	882.74	-17.306	143.66	82.449	147.17	-37.296	1042.8	462.3	-246.8	85.21	333.82	347.47	85.45	173.69	-305.58	41.871	293.77	-140.99	1249.5	10.551	-89.647	829.07	-63.369
371	1.855	108.61	978.31	552.78	15.595	941.16	400.35	3.0843	1210.5	507.14	12.86	1394	411	-14.286	1583.3	334.45	-61.811	1441.8	273.07	-128.68	987.03	-44.098	-7.5109	642.53	393.64	238.99	852.66	529.27	-88.328	553.59	410.32	-128.12	1345.5	375.83	-5.2173	1081.6	551.04	-166.13	175.63	292.63	-106.11	355.59	303.02	-198.32	1128	85.969	-102.44	36.058	250.57	-130.92	32.55	340.1	-111.49	450.43	390.28	128.67	699.61	85.278	-140.58	262.8	372.28	-71.881	644.11	428.91	107.65	585.8	74.471	-46.686	1431	95.262	-133.11	266.87	299.5	-192.85	1128.6	6.2272	-157.45	960.02	187.93	-224.28	99.466	245.19	-152.8	869.75	-34.358	67.298	1355.5	244.99	65.489	663.74	56.542	222.02	912.08	491.67	-162.42	965.73	292.09	-12.721	1585.1	195.61	201.44	400.58	145.52	-165.64	1133.1	250.6	137.18	477.24	94.377	-46.233	26.118	271.46	171.69	1580.4	221.53	171.61	867.77	532.23	213.76	215.56	160.1	-58.07	738.3	440.19	166.94	300.13	92.747	205.9	307.84	153.46	333.24	73.197	199.81	20.485	751.21	52.164	133.72	33.858	201.06	301.3	56.927	124.89	-73.698	880.35	-17.365	163.2	81.28	146.56	-29.028	1042	462.8	-246.55	85.592	333.57	367.17	88.873	173.75	-305.42	42.352	293.81	-134.45	1248.3	10.805	-86.725	827	-63.688
